<mxfile host="Electron" agent="Mozilla/5.0 (Macintosh; Intel Mac OS X 10_15_7) AppleWebKit/537.36 (KHTML, like Gecko) draw.io/24.7.17 Chrome/128.0.6613.36 Electron/32.0.1 Safari/537.36" version="24.7.17">
  <diagram name="Page-1" id="oR-FJ84qx2OYOZPKy_yY">
    <mxGraphModel dx="1602" dy="2287" grid="1" gridSize="10" guides="1" tooltips="1" connect="1" arrows="1" fold="1" page="1" pageScale="1" pageWidth="850" pageHeight="1100" math="1" shadow="0">
      <root>
        <mxCell id="0" />
        <mxCell id="1" parent="0" />
        <mxCell id="bdSbIlK9flpPJG_2lz9X-133" value="" style="rounded=0;whiteSpace=wrap;html=1;" vertex="1" parent="1">
          <mxGeometry x="1720" width="400" height="380" as="geometry" />
        </mxCell>
        <mxCell id="bdSbIlK9flpPJG_2lz9X-21" style="rounded=0;orthogonalLoop=1;jettySize=auto;html=1;exitX=1;exitY=1;exitDx=0;exitDy=0;entryX=0.5;entryY=0;entryDx=0;entryDy=0;" edge="1" parent="1" source="bdSbIlK9flpPJG_2lz9X-1" target="bdSbIlK9flpPJG_2lz9X-5">
          <mxGeometry relative="1" as="geometry" />
        </mxCell>
        <mxCell id="bdSbIlK9flpPJG_2lz9X-32" style="rounded=0;orthogonalLoop=1;jettySize=auto;html=1;exitX=0;exitY=1;exitDx=0;exitDy=0;entryX=0.5;entryY=0;entryDx=0;entryDy=0;" edge="1" parent="1" source="bdSbIlK9flpPJG_2lz9X-1" target="bdSbIlK9flpPJG_2lz9X-4">
          <mxGeometry relative="1" as="geometry" />
        </mxCell>
        <mxCell id="bdSbIlK9flpPJG_2lz9X-1" value="\(A\)" style="ellipse;whiteSpace=wrap;html=1;aspect=fixed;strokeWidth=1;fontSize=20;fillColor=#ffe6cc;strokeColor=#d79b00;" vertex="1" parent="1">
          <mxGeometry x="100" y="120" width="80" height="80" as="geometry" />
        </mxCell>
        <mxCell id="bdSbIlK9flpPJG_2lz9X-24" style="rounded=0;orthogonalLoop=1;jettySize=auto;html=1;exitX=0;exitY=1;exitDx=0;exitDy=0;entryX=0.5;entryY=0;entryDx=0;entryDy=0;" edge="1" parent="1" source="bdSbIlK9flpPJG_2lz9X-2" target="bdSbIlK9flpPJG_2lz9X-6">
          <mxGeometry relative="1" as="geometry" />
        </mxCell>
        <mxCell id="bdSbIlK9flpPJG_2lz9X-26" style="rounded=0;orthogonalLoop=1;jettySize=auto;html=1;exitX=1;exitY=1;exitDx=0;exitDy=0;entryX=0.5;entryY=0;entryDx=0;entryDy=0;" edge="1" parent="1" source="bdSbIlK9flpPJG_2lz9X-2" target="bdSbIlK9flpPJG_2lz9X-7">
          <mxGeometry relative="1" as="geometry" />
        </mxCell>
        <mxCell id="bdSbIlK9flpPJG_2lz9X-2" value="\(B\)" style="ellipse;whiteSpace=wrap;html=1;aspect=fixed;strokeWidth=1;fontSize=20;fillColor=#dae8fc;strokeColor=#6c8ebf;" vertex="1" parent="1">
          <mxGeometry x="340" y="120" width="80" height="80" as="geometry" />
        </mxCell>
        <mxCell id="bdSbIlK9flpPJG_2lz9X-28" style="rounded=0;orthogonalLoop=1;jettySize=auto;html=1;exitX=0;exitY=1;exitDx=0;exitDy=0;entryX=0.5;entryY=0;entryDx=0;entryDy=0;" edge="1" parent="1" source="bdSbIlK9flpPJG_2lz9X-3" target="bdSbIlK9flpPJG_2lz9X-8">
          <mxGeometry relative="1" as="geometry" />
        </mxCell>
        <mxCell id="bdSbIlK9flpPJG_2lz9X-29" style="rounded=0;orthogonalLoop=1;jettySize=auto;html=1;exitX=1;exitY=1;exitDx=0;exitDy=0;entryX=0.5;entryY=0;entryDx=0;entryDy=0;" edge="1" parent="1" source="bdSbIlK9flpPJG_2lz9X-3" target="bdSbIlK9flpPJG_2lz9X-9">
          <mxGeometry relative="1" as="geometry" />
        </mxCell>
        <mxCell id="bdSbIlK9flpPJG_2lz9X-3" value="\(C\)" style="ellipse;whiteSpace=wrap;html=1;aspect=fixed;strokeWidth=1;fontSize=20;fillColor=#d5e8d4;strokeColor=#82b366;" vertex="1" parent="1">
          <mxGeometry x="580" y="120" width="80" height="80" as="geometry" />
        </mxCell>
        <mxCell id="bdSbIlK9flpPJG_2lz9X-22" style="rounded=0;orthogonalLoop=1;jettySize=auto;html=1;exitX=1;exitY=1;exitDx=0;exitDy=0;entryX=0.5;entryY=0;entryDx=0;entryDy=0;" edge="1" parent="1" source="bdSbIlK9flpPJG_2lz9X-4" target="bdSbIlK9flpPJG_2lz9X-10">
          <mxGeometry relative="1" as="geometry" />
        </mxCell>
        <mxCell id="bdSbIlK9flpPJG_2lz9X-4" value="\(B\)" style="ellipse;whiteSpace=wrap;html=1;aspect=fixed;strokeWidth=1;fontSize=20;fillColor=#dae8fc;strokeColor=#6c8ebf;" vertex="1" parent="1">
          <mxGeometry x="40" y="240" width="80" height="80" as="geometry" />
        </mxCell>
        <mxCell id="bdSbIlK9flpPJG_2lz9X-23" style="rounded=0;orthogonalLoop=1;jettySize=auto;html=1;exitX=1;exitY=1;exitDx=0;exitDy=0;entryX=0.5;entryY=0;entryDx=0;entryDy=0;" edge="1" parent="1" source="bdSbIlK9flpPJG_2lz9X-5" target="bdSbIlK9flpPJG_2lz9X-11">
          <mxGeometry relative="1" as="geometry" />
        </mxCell>
        <mxCell id="bdSbIlK9flpPJG_2lz9X-5" value="\(C\)" style="ellipse;whiteSpace=wrap;html=1;aspect=fixed;strokeWidth=1;fontSize=20;fillColor=#d5e8d4;strokeColor=#82b366;" vertex="1" parent="1">
          <mxGeometry x="160" y="240" width="80" height="80" as="geometry" />
        </mxCell>
        <mxCell id="bdSbIlK9flpPJG_2lz9X-25" style="rounded=0;orthogonalLoop=1;jettySize=auto;html=1;exitX=1;exitY=1;exitDx=0;exitDy=0;entryX=0.5;entryY=0;entryDx=0;entryDy=0;" edge="1" parent="1" source="bdSbIlK9flpPJG_2lz9X-6" target="bdSbIlK9flpPJG_2lz9X-12">
          <mxGeometry relative="1" as="geometry" />
        </mxCell>
        <mxCell id="bdSbIlK9flpPJG_2lz9X-6" value="\(A\)" style="ellipse;whiteSpace=wrap;html=1;aspect=fixed;strokeWidth=1;fontSize=20;fillColor=#ffe6cc;strokeColor=#d79b00;" vertex="1" parent="1">
          <mxGeometry x="280" y="240" width="80" height="80" as="geometry" />
        </mxCell>
        <mxCell id="bdSbIlK9flpPJG_2lz9X-27" style="rounded=0;orthogonalLoop=1;jettySize=auto;html=1;exitX=1;exitY=1;exitDx=0;exitDy=0;" edge="1" parent="1" source="bdSbIlK9flpPJG_2lz9X-7" target="bdSbIlK9flpPJG_2lz9X-13">
          <mxGeometry relative="1" as="geometry" />
        </mxCell>
        <mxCell id="bdSbIlK9flpPJG_2lz9X-7" value="\(C\)" style="ellipse;whiteSpace=wrap;html=1;aspect=fixed;strokeWidth=1;fontSize=20;fillColor=#d5e8d4;strokeColor=#82b366;" vertex="1" parent="1">
          <mxGeometry x="400" y="240" width="80" height="80" as="geometry" />
        </mxCell>
        <mxCell id="bdSbIlK9flpPJG_2lz9X-30" style="rounded=0;orthogonalLoop=1;jettySize=auto;html=1;exitX=1;exitY=1;exitDx=0;exitDy=0;entryX=0.5;entryY=0;entryDx=0;entryDy=0;" edge="1" parent="1" source="bdSbIlK9flpPJG_2lz9X-8" target="bdSbIlK9flpPJG_2lz9X-14">
          <mxGeometry relative="1" as="geometry" />
        </mxCell>
        <mxCell id="bdSbIlK9flpPJG_2lz9X-8" value="\(A\)" style="ellipse;whiteSpace=wrap;html=1;aspect=fixed;strokeWidth=1;fontSize=20;fillColor=#ffe6cc;strokeColor=#d79b00;" vertex="1" parent="1">
          <mxGeometry x="520" y="240" width="80" height="80" as="geometry" />
        </mxCell>
        <mxCell id="bdSbIlK9flpPJG_2lz9X-31" style="rounded=0;orthogonalLoop=1;jettySize=auto;html=1;exitX=1;exitY=1;exitDx=0;exitDy=0;entryX=0.5;entryY=0;entryDx=0;entryDy=0;" edge="1" parent="1" source="bdSbIlK9flpPJG_2lz9X-9" target="bdSbIlK9flpPJG_2lz9X-15">
          <mxGeometry relative="1" as="geometry" />
        </mxCell>
        <mxCell id="bdSbIlK9flpPJG_2lz9X-9" value="\(B\)" style="ellipse;whiteSpace=wrap;html=1;aspect=fixed;strokeWidth=1;fontSize=20;fillColor=#dae8fc;strokeColor=#6c8ebf;" vertex="1" parent="1">
          <mxGeometry x="640" y="240" width="80" height="80" as="geometry" />
        </mxCell>
        <mxCell id="bdSbIlK9flpPJG_2lz9X-10" value="\(C\)" style="ellipse;whiteSpace=wrap;html=1;aspect=fixed;strokeWidth=1;fontSize=20;fillColor=#d5e8d4;strokeColor=#82b366;" vertex="1" parent="1">
          <mxGeometry x="80" y="360" width="80" height="80" as="geometry" />
        </mxCell>
        <mxCell id="bdSbIlK9flpPJG_2lz9X-11" value="\(B\)" style="ellipse;whiteSpace=wrap;html=1;aspect=fixed;strokeWidth=1;fontSize=20;fillColor=#dae8fc;strokeColor=#6c8ebf;" vertex="1" parent="1">
          <mxGeometry x="200" y="360" width="80" height="80" as="geometry" />
        </mxCell>
        <mxCell id="bdSbIlK9flpPJG_2lz9X-12" value="\(C\)" style="ellipse;whiteSpace=wrap;html=1;aspect=fixed;strokeWidth=1;fontSize=20;fillColor=#d5e8d4;strokeColor=#82b366;" vertex="1" parent="1">
          <mxGeometry x="320" y="360" width="80" height="80" as="geometry" />
        </mxCell>
        <mxCell id="bdSbIlK9flpPJG_2lz9X-13" value="\(A\)" style="ellipse;whiteSpace=wrap;html=1;aspect=fixed;strokeWidth=1;fontSize=20;fillColor=#ffe6cc;strokeColor=#d79b00;" vertex="1" parent="1">
          <mxGeometry x="440" y="360" width="80" height="80" as="geometry" />
        </mxCell>
        <mxCell id="bdSbIlK9flpPJG_2lz9X-14" value="\(B\)" style="ellipse;whiteSpace=wrap;html=1;aspect=fixed;strokeWidth=1;fontSize=20;fillColor=#dae8fc;strokeColor=#6c8ebf;" vertex="1" parent="1">
          <mxGeometry x="560" y="360" width="80" height="80" as="geometry" />
        </mxCell>
        <mxCell id="bdSbIlK9flpPJG_2lz9X-15" value="\(A\)" style="ellipse;whiteSpace=wrap;html=1;aspect=fixed;strokeWidth=1;fontSize=20;fillColor=#ffe6cc;strokeColor=#d79b00;" vertex="1" parent="1">
          <mxGeometry x="680" y="360" width="80" height="80" as="geometry" />
        </mxCell>
        <mxCell id="bdSbIlK9flpPJG_2lz9X-17" style="rounded=0;orthogonalLoop=1;jettySize=auto;html=1;exitX=0;exitY=1;exitDx=0;exitDy=0;entryX=1;entryY=0;entryDx=0;entryDy=0;" edge="1" parent="1" source="bdSbIlK9flpPJG_2lz9X-16" target="bdSbIlK9flpPJG_2lz9X-1">
          <mxGeometry relative="1" as="geometry" />
        </mxCell>
        <mxCell id="bdSbIlK9flpPJG_2lz9X-18" style="edgeStyle=orthogonalEdgeStyle;rounded=0;orthogonalLoop=1;jettySize=auto;html=1;exitX=0.5;exitY=1;exitDx=0;exitDy=0;entryX=0.5;entryY=0;entryDx=0;entryDy=0;" edge="1" parent="1" source="bdSbIlK9flpPJG_2lz9X-16" target="bdSbIlK9flpPJG_2lz9X-2">
          <mxGeometry relative="1" as="geometry" />
        </mxCell>
        <mxCell id="bdSbIlK9flpPJG_2lz9X-19" style="rounded=0;orthogonalLoop=1;jettySize=auto;html=1;exitX=1;exitY=1;exitDx=0;exitDy=0;entryX=0;entryY=0;entryDx=0;entryDy=0;" edge="1" parent="1" source="bdSbIlK9flpPJG_2lz9X-16" target="bdSbIlK9flpPJG_2lz9X-3">
          <mxGeometry relative="1" as="geometry" />
        </mxCell>
        <mxCell id="bdSbIlK9flpPJG_2lz9X-16" value="\(\Phi\)" style="ellipse;whiteSpace=wrap;html=1;aspect=fixed;strokeWidth=1;fontSize=20;" vertex="1" parent="1">
          <mxGeometry x="340" width="80" height="80" as="geometry" />
        </mxCell>
        <mxCell id="bdSbIlK9flpPJG_2lz9X-33" value="\(A|\Phi\)" style="text;html=1;align=center;verticalAlign=middle;resizable=0;points=[];autosize=1;strokeColor=none;fillColor=none;fontSize=15;" vertex="1" parent="1">
          <mxGeometry x="100" y="200" width="80" height="30" as="geometry" />
        </mxCell>
        <mxCell id="bdSbIlK9flpPJG_2lz9X-34" value="\(B|\Phi\)" style="text;html=1;align=center;verticalAlign=middle;resizable=0;points=[];autosize=1;strokeColor=none;fillColor=none;fontSize=15;" vertex="1" parent="1">
          <mxGeometry x="340" y="200" width="80" height="30" as="geometry" />
        </mxCell>
        <mxCell id="bdSbIlK9flpPJG_2lz9X-35" value="\(C|\Phi\)" style="text;html=1;align=center;verticalAlign=middle;resizable=0;points=[];autosize=1;strokeColor=none;fillColor=none;fontSize=15;" vertex="1" parent="1">
          <mxGeometry x="580" y="200" width="80" height="30" as="geometry" />
        </mxCell>
        <mxCell id="bdSbIlK9flpPJG_2lz9X-36" value="\(B|A\)" style="text;html=1;align=center;verticalAlign=middle;resizable=0;points=[];autosize=1;strokeColor=none;fillColor=none;fontSize=15;" vertex="1" parent="1">
          <mxGeometry x="45" y="320" width="70" height="30" as="geometry" />
        </mxCell>
        <mxCell id="bdSbIlK9flpPJG_2lz9X-37" value="\(C|A\)" style="text;html=1;align=center;verticalAlign=middle;resizable=0;points=[];autosize=1;strokeColor=none;fillColor=none;fontSize=15;" vertex="1" parent="1">
          <mxGeometry x="165" y="320" width="70" height="30" as="geometry" />
        </mxCell>
        <mxCell id="bdSbIlK9flpPJG_2lz9X-38" value="\(A|B\)" style="text;html=1;align=center;verticalAlign=middle;resizable=0;points=[];autosize=1;strokeColor=none;fillColor=none;fontSize=15;" vertex="1" parent="1">
          <mxGeometry x="285" y="320" width="70" height="30" as="geometry" />
        </mxCell>
        <mxCell id="bdSbIlK9flpPJG_2lz9X-39" value="\(C|B\)" style="text;html=1;align=center;verticalAlign=middle;resizable=0;points=[];autosize=1;strokeColor=none;fillColor=none;fontSize=15;" vertex="1" parent="1">
          <mxGeometry x="405" y="320" width="70" height="30" as="geometry" />
        </mxCell>
        <mxCell id="bdSbIlK9flpPJG_2lz9X-40" value="\(A|C\)" style="text;html=1;align=center;verticalAlign=middle;resizable=0;points=[];autosize=1;strokeColor=none;fillColor=none;fontSize=15;" vertex="1" parent="1">
          <mxGeometry x="525" y="320" width="70" height="30" as="geometry" />
        </mxCell>
        <mxCell id="bdSbIlK9flpPJG_2lz9X-41" value="\(B|C\)" style="text;html=1;align=center;verticalAlign=middle;resizable=0;points=[];autosize=1;strokeColor=none;fillColor=none;fontSize=15;" vertex="1" parent="1">
          <mxGeometry x="645" y="320" width="70" height="30" as="geometry" />
        </mxCell>
        <mxCell id="bdSbIlK9flpPJG_2lz9X-43" value="\(C|AB\)" style="text;html=1;align=center;verticalAlign=middle;resizable=0;points=[];autosize=1;strokeColor=none;fillColor=none;fontSize=15;" vertex="1" parent="1">
          <mxGeometry x="80" y="440" width="80" height="30" as="geometry" />
        </mxCell>
        <mxCell id="bdSbIlK9flpPJG_2lz9X-44" value="\(B|CA\)" style="text;html=1;align=center;verticalAlign=middle;resizable=0;points=[];autosize=1;strokeColor=none;fillColor=none;fontSize=15;" vertex="1" parent="1">
          <mxGeometry x="200" y="440" width="80" height="30" as="geometry" />
        </mxCell>
        <mxCell id="bdSbIlK9flpPJG_2lz9X-45" value="\(C|AB\)" style="text;html=1;align=center;verticalAlign=middle;resizable=0;points=[];autosize=1;strokeColor=none;fillColor=none;fontSize=15;" vertex="1" parent="1">
          <mxGeometry x="320" y="440" width="80" height="30" as="geometry" />
        </mxCell>
        <mxCell id="bdSbIlK9flpPJG_2lz9X-46" value="\(A|BC\)" style="text;html=1;align=center;verticalAlign=middle;resizable=0;points=[];autosize=1;strokeColor=none;fillColor=none;fontSize=15;" vertex="1" parent="1">
          <mxGeometry x="440" y="440" width="80" height="30" as="geometry" />
        </mxCell>
        <mxCell id="bdSbIlK9flpPJG_2lz9X-47" value="\(B|AC\)" style="text;html=1;align=center;verticalAlign=middle;resizable=0;points=[];autosize=1;strokeColor=none;fillColor=none;fontSize=15;" vertex="1" parent="1">
          <mxGeometry x="560" y="440" width="80" height="30" as="geometry" />
        </mxCell>
        <mxCell id="bdSbIlK9flpPJG_2lz9X-48" value="\(A|BC\)" style="text;html=1;align=center;verticalAlign=middle;resizable=0;points=[];autosize=1;strokeColor=none;fillColor=none;fontSize=15;" vertex="1" parent="1">
          <mxGeometry x="680" y="440" width="80" height="30" as="geometry" />
        </mxCell>
        <mxCell id="bdSbIlK9flpPJG_2lz9X-49" style="rounded=0;orthogonalLoop=1;jettySize=auto;html=1;exitX=1;exitY=1;exitDx=0;exitDy=0;entryX=0.5;entryY=0;entryDx=0;entryDy=0;" edge="1" parent="1" source="bdSbIlK9flpPJG_2lz9X-51" target="bdSbIlK9flpPJG_2lz9X-61">
          <mxGeometry relative="1" as="geometry" />
        </mxCell>
        <mxCell id="bdSbIlK9flpPJG_2lz9X-50" style="rounded=0;orthogonalLoop=1;jettySize=auto;html=1;exitX=0;exitY=1;exitDx=0;exitDy=0;entryX=0.5;entryY=0;entryDx=0;entryDy=0;" edge="1" parent="1" source="bdSbIlK9flpPJG_2lz9X-51" target="bdSbIlK9flpPJG_2lz9X-59">
          <mxGeometry relative="1" as="geometry" />
        </mxCell>
        <mxCell id="bdSbIlK9flpPJG_2lz9X-51" value="\(A\)" style="ellipse;whiteSpace=wrap;html=1;aspect=fixed;strokeWidth=1;fontSize=20;fillColor=#ffe6cc;strokeColor=#d79b00;" vertex="1" parent="1">
          <mxGeometry x="900" y="120" width="80" height="80" as="geometry" />
        </mxCell>
        <mxCell id="bdSbIlK9flpPJG_2lz9X-52" style="rounded=0;orthogonalLoop=1;jettySize=auto;html=1;exitX=0;exitY=1;exitDx=0;exitDy=0;entryX=0.5;entryY=0;entryDx=0;entryDy=0;" edge="1" parent="1" source="bdSbIlK9flpPJG_2lz9X-54" target="bdSbIlK9flpPJG_2lz9X-63">
          <mxGeometry relative="1" as="geometry" />
        </mxCell>
        <mxCell id="bdSbIlK9flpPJG_2lz9X-53" style="rounded=0;orthogonalLoop=1;jettySize=auto;html=1;exitX=1;exitY=1;exitDx=0;exitDy=0;entryX=0.5;entryY=0;entryDx=0;entryDy=0;" edge="1" parent="1" source="bdSbIlK9flpPJG_2lz9X-54" target="bdSbIlK9flpPJG_2lz9X-65">
          <mxGeometry relative="1" as="geometry" />
        </mxCell>
        <mxCell id="bdSbIlK9flpPJG_2lz9X-54" value="\(B\)" style="ellipse;whiteSpace=wrap;html=1;aspect=fixed;strokeWidth=1;fontSize=20;fillColor=#dae8fc;strokeColor=#6c8ebf;" vertex="1" parent="1">
          <mxGeometry x="1140" y="120" width="80" height="80" as="geometry" />
        </mxCell>
        <mxCell id="bdSbIlK9flpPJG_2lz9X-56" style="rounded=0;orthogonalLoop=1;jettySize=auto;html=1;exitX=1;exitY=1;exitDx=0;exitDy=0;entryX=0.5;entryY=0;entryDx=0;entryDy=0;" edge="1" parent="1" source="bdSbIlK9flpPJG_2lz9X-57" target="bdSbIlK9flpPJG_2lz9X-69">
          <mxGeometry relative="1" as="geometry" />
        </mxCell>
        <mxCell id="bdSbIlK9flpPJG_2lz9X-57" value="\(C\)" style="ellipse;whiteSpace=wrap;html=1;aspect=fixed;strokeWidth=1;fontSize=20;fillColor=#d5e8d4;strokeColor=#82b366;" vertex="1" parent="1">
          <mxGeometry x="1380" y="120" width="80" height="80" as="geometry" />
        </mxCell>
        <mxCell id="bdSbIlK9flpPJG_2lz9X-58" style="rounded=0;orthogonalLoop=1;jettySize=auto;html=1;exitX=1;exitY=1;exitDx=0;exitDy=0;entryX=0.5;entryY=0;entryDx=0;entryDy=0;" edge="1" parent="1" source="bdSbIlK9flpPJG_2lz9X-59" target="bdSbIlK9flpPJG_2lz9X-70">
          <mxGeometry relative="1" as="geometry" />
        </mxCell>
        <mxCell id="bdSbIlK9flpPJG_2lz9X-59" value="\(B\)" style="ellipse;whiteSpace=wrap;html=1;aspect=fixed;strokeWidth=1;fontSize=20;fillColor=#dae8fc;strokeColor=#6c8ebf;" vertex="1" parent="1">
          <mxGeometry x="840" y="240" width="80" height="80" as="geometry" />
        </mxCell>
        <mxCell id="bdSbIlK9flpPJG_2lz9X-60" style="rounded=0;orthogonalLoop=1;jettySize=auto;html=1;exitX=1;exitY=1;exitDx=0;exitDy=0;entryX=0.5;entryY=0;entryDx=0;entryDy=0;" edge="1" parent="1" source="bdSbIlK9flpPJG_2lz9X-61" target="bdSbIlK9flpPJG_2lz9X-71">
          <mxGeometry relative="1" as="geometry" />
        </mxCell>
        <mxCell id="bdSbIlK9flpPJG_2lz9X-61" value="\(C\)" style="ellipse;whiteSpace=wrap;html=1;aspect=fixed;strokeWidth=1;fontSize=20;fillColor=#d5e8d4;strokeColor=#82b366;" vertex="1" parent="1">
          <mxGeometry x="960" y="240" width="80" height="80" as="geometry" />
        </mxCell>
        <mxCell id="bdSbIlK9flpPJG_2lz9X-62" style="rounded=0;orthogonalLoop=1;jettySize=auto;html=1;exitX=1;exitY=1;exitDx=0;exitDy=0;entryX=0.5;entryY=0;entryDx=0;entryDy=0;" edge="1" parent="1" source="bdSbIlK9flpPJG_2lz9X-63" target="bdSbIlK9flpPJG_2lz9X-72">
          <mxGeometry relative="1" as="geometry" />
        </mxCell>
        <mxCell id="bdSbIlK9flpPJG_2lz9X-63" value="\(A\)" style="ellipse;whiteSpace=wrap;html=1;aspect=fixed;strokeWidth=1;fontSize=20;fillColor=#ffe6cc;strokeColor=#d79b00;" vertex="1" parent="1">
          <mxGeometry x="1080" y="240" width="80" height="80" as="geometry" />
        </mxCell>
        <mxCell id="bdSbIlK9flpPJG_2lz9X-64" style="rounded=0;orthogonalLoop=1;jettySize=auto;html=1;exitX=1;exitY=1;exitDx=0;exitDy=0;" edge="1" parent="1" source="bdSbIlK9flpPJG_2lz9X-65" target="bdSbIlK9flpPJG_2lz9X-73">
          <mxGeometry relative="1" as="geometry" />
        </mxCell>
        <mxCell id="bdSbIlK9flpPJG_2lz9X-65" value="\(C\)" style="ellipse;whiteSpace=wrap;html=1;aspect=fixed;strokeWidth=1;fontSize=20;fillColor=#d5e8d4;strokeColor=#82b366;" vertex="1" parent="1">
          <mxGeometry x="1200" y="240" width="80" height="80" as="geometry" />
        </mxCell>
        <mxCell id="bdSbIlK9flpPJG_2lz9X-69" value="\(AB\)" style="ellipse;whiteSpace=wrap;html=1;aspect=fixed;strokeWidth=1;fontSize=20;fillColor=#f8cecc;strokeColor=#b85450;" vertex="1" parent="1">
          <mxGeometry x="1440" y="240" width="80" height="80" as="geometry" />
        </mxCell>
        <mxCell id="bdSbIlK9flpPJG_2lz9X-70" value="\(C\)" style="ellipse;whiteSpace=wrap;html=1;aspect=fixed;strokeWidth=1;fontSize=20;fillColor=#d5e8d4;strokeColor=#82b366;" vertex="1" parent="1">
          <mxGeometry x="880" y="360" width="80" height="80" as="geometry" />
        </mxCell>
        <mxCell id="bdSbIlK9flpPJG_2lz9X-71" value="\(B\)" style="ellipse;whiteSpace=wrap;html=1;aspect=fixed;strokeWidth=1;fontSize=20;fillColor=#dae8fc;strokeColor=#6c8ebf;" vertex="1" parent="1">
          <mxGeometry x="1000" y="360" width="80" height="80" as="geometry" />
        </mxCell>
        <mxCell id="bdSbIlK9flpPJG_2lz9X-72" value="\(C\)" style="ellipse;whiteSpace=wrap;html=1;aspect=fixed;strokeWidth=1;fontSize=20;fillColor=#d5e8d4;strokeColor=#82b366;" vertex="1" parent="1">
          <mxGeometry x="1120" y="360" width="80" height="80" as="geometry" />
        </mxCell>
        <mxCell id="bdSbIlK9flpPJG_2lz9X-73" value="\(A\)" style="ellipse;whiteSpace=wrap;html=1;aspect=fixed;strokeWidth=1;fontSize=20;fillColor=#ffe6cc;strokeColor=#d79b00;" vertex="1" parent="1">
          <mxGeometry x="1240" y="360" width="80" height="80" as="geometry" />
        </mxCell>
        <mxCell id="bdSbIlK9flpPJG_2lz9X-76" style="rounded=0;orthogonalLoop=1;jettySize=auto;html=1;exitX=0;exitY=1;exitDx=0;exitDy=0;entryX=1;entryY=0;entryDx=0;entryDy=0;" edge="1" parent="1" source="bdSbIlK9flpPJG_2lz9X-79" target="bdSbIlK9flpPJG_2lz9X-51">
          <mxGeometry relative="1" as="geometry" />
        </mxCell>
        <mxCell id="bdSbIlK9flpPJG_2lz9X-77" style="edgeStyle=orthogonalEdgeStyle;rounded=0;orthogonalLoop=1;jettySize=auto;html=1;exitX=0.5;exitY=1;exitDx=0;exitDy=0;entryX=0.5;entryY=0;entryDx=0;entryDy=0;" edge="1" parent="1" source="bdSbIlK9flpPJG_2lz9X-79" target="bdSbIlK9flpPJG_2lz9X-54">
          <mxGeometry relative="1" as="geometry" />
        </mxCell>
        <mxCell id="bdSbIlK9flpPJG_2lz9X-78" style="rounded=0;orthogonalLoop=1;jettySize=auto;html=1;exitX=1;exitY=1;exitDx=0;exitDy=0;entryX=0;entryY=0;entryDx=0;entryDy=0;" edge="1" parent="1" source="bdSbIlK9flpPJG_2lz9X-79" target="bdSbIlK9flpPJG_2lz9X-57">
          <mxGeometry relative="1" as="geometry" />
        </mxCell>
        <mxCell id="bdSbIlK9flpPJG_2lz9X-79" value="\(\Phi\)" style="ellipse;whiteSpace=wrap;html=1;aspect=fixed;strokeWidth=1;fontSize=20;" vertex="1" parent="1">
          <mxGeometry x="1140" width="80" height="80" as="geometry" />
        </mxCell>
        <mxCell id="bdSbIlK9flpPJG_2lz9X-80" value="\(A|\Phi\)" style="text;html=1;align=center;verticalAlign=middle;resizable=0;points=[];autosize=1;strokeColor=none;fillColor=none;fontSize=15;" vertex="1" parent="1">
          <mxGeometry x="900" y="200" width="80" height="30" as="geometry" />
        </mxCell>
        <mxCell id="bdSbIlK9flpPJG_2lz9X-81" value="\(B|\Phi\)" style="text;html=1;align=center;verticalAlign=middle;resizable=0;points=[];autosize=1;strokeColor=none;fillColor=none;fontSize=15;" vertex="1" parent="1">
          <mxGeometry x="1140" y="200" width="80" height="30" as="geometry" />
        </mxCell>
        <mxCell id="bdSbIlK9flpPJG_2lz9X-82" value="\(C|\Phi\)" style="text;html=1;align=center;verticalAlign=middle;resizable=0;points=[];autosize=1;strokeColor=none;fillColor=none;fontSize=15;" vertex="1" parent="1">
          <mxGeometry x="1380" y="200" width="80" height="30" as="geometry" />
        </mxCell>
        <mxCell id="bdSbIlK9flpPJG_2lz9X-83" value="\(B|A\)" style="text;html=1;align=center;verticalAlign=middle;resizable=0;points=[];autosize=1;strokeColor=none;fillColor=none;fontSize=15;" vertex="1" parent="1">
          <mxGeometry x="845" y="320" width="70" height="30" as="geometry" />
        </mxCell>
        <mxCell id="bdSbIlK9flpPJG_2lz9X-84" value="\(C|A\)" style="text;html=1;align=center;verticalAlign=middle;resizable=0;points=[];autosize=1;strokeColor=none;fillColor=none;fontSize=15;" vertex="1" parent="1">
          <mxGeometry x="965" y="320" width="70" height="30" as="geometry" />
        </mxCell>
        <mxCell id="bdSbIlK9flpPJG_2lz9X-85" value="\(A|B\)" style="text;html=1;align=center;verticalAlign=middle;resizable=0;points=[];autosize=1;strokeColor=none;fillColor=none;fontSize=15;" vertex="1" parent="1">
          <mxGeometry x="1085" y="320" width="70" height="30" as="geometry" />
        </mxCell>
        <mxCell id="bdSbIlK9flpPJG_2lz9X-86" value="\(C|B\)" style="text;html=1;align=center;verticalAlign=middle;resizable=0;points=[];autosize=1;strokeColor=none;fillColor=none;fontSize=15;" vertex="1" parent="1">
          <mxGeometry x="1205" y="320" width="70" height="30" as="geometry" />
        </mxCell>
        <mxCell id="bdSbIlK9flpPJG_2lz9X-88" value="\(AB|C\)" style="text;html=1;align=center;verticalAlign=middle;resizable=0;points=[];autosize=1;strokeColor=none;fillColor=none;fontSize=15;" vertex="1" parent="1">
          <mxGeometry x="1440" y="320" width="80" height="30" as="geometry" />
        </mxCell>
        <mxCell id="bdSbIlK9flpPJG_2lz9X-89" value="\(C|AB\)" style="text;html=1;align=center;verticalAlign=middle;resizable=0;points=[];autosize=1;strokeColor=none;fillColor=none;fontSize=15;" vertex="1" parent="1">
          <mxGeometry x="880" y="440" width="80" height="30" as="geometry" />
        </mxCell>
        <mxCell id="bdSbIlK9flpPJG_2lz9X-90" value="\(B|CA\)" style="text;html=1;align=center;verticalAlign=middle;resizable=0;points=[];autosize=1;strokeColor=none;fillColor=none;fontSize=15;" vertex="1" parent="1">
          <mxGeometry x="1000" y="440" width="80" height="30" as="geometry" />
        </mxCell>
        <mxCell id="bdSbIlK9flpPJG_2lz9X-91" value="\(C|AB\)" style="text;html=1;align=center;verticalAlign=middle;resizable=0;points=[];autosize=1;strokeColor=none;fillColor=none;fontSize=15;" vertex="1" parent="1">
          <mxGeometry x="1120" y="440" width="80" height="30" as="geometry" />
        </mxCell>
        <mxCell id="bdSbIlK9flpPJG_2lz9X-92" value="\(A|BC\)" style="text;html=1;align=center;verticalAlign=middle;resizable=0;points=[];autosize=1;strokeColor=none;fillColor=none;fontSize=15;" vertex="1" parent="1">
          <mxGeometry x="1240" y="440" width="80" height="30" as="geometry" />
        </mxCell>
        <mxCell id="bdSbIlK9flpPJG_2lz9X-95" style="rounded=0;orthogonalLoop=1;jettySize=auto;html=1;exitX=0;exitY=1;exitDx=0;exitDy=0;entryX=0.5;entryY=0;entryDx=0;entryDy=0;" edge="1" parent="1" source="bdSbIlK9flpPJG_2lz9X-97" target="bdSbIlK9flpPJG_2lz9X-106">
          <mxGeometry relative="1" as="geometry" />
        </mxCell>
        <mxCell id="bdSbIlK9flpPJG_2lz9X-97" value="\(AB\)" style="ellipse;whiteSpace=wrap;html=1;aspect=fixed;strokeWidth=1;fontSize=20;fillColor=#ffe6cc;strokeColor=#d79b00;" vertex="1" parent="1">
          <mxGeometry x="1820" y="130" width="80" height="80" as="geometry" />
        </mxCell>
        <mxCell id="bdSbIlK9flpPJG_2lz9X-101" style="rounded=0;orthogonalLoop=1;jettySize=auto;html=1;exitX=1;exitY=1;exitDx=0;exitDy=0;entryX=0.5;entryY=0;entryDx=0;entryDy=0;" edge="1" parent="1" source="bdSbIlK9flpPJG_2lz9X-102" target="bdSbIlK9flpPJG_2lz9X-111">
          <mxGeometry relative="1" as="geometry" />
        </mxCell>
        <mxCell id="bdSbIlK9flpPJG_2lz9X-102" value="\(C\)" style="ellipse;whiteSpace=wrap;html=1;aspect=fixed;strokeWidth=1;fontSize=20;fillColor=#d5e8d4;strokeColor=#82b366;" vertex="1" parent="1">
          <mxGeometry x="1940" y="130" width="80" height="80" as="geometry" />
        </mxCell>
        <mxCell id="bdSbIlK9flpPJG_2lz9X-106" value="\(C\)" style="ellipse;whiteSpace=wrap;html=1;aspect=fixed;strokeWidth=1;fontSize=20;fillColor=#d5e8d4;strokeColor=#82b366;" vertex="1" parent="1">
          <mxGeometry x="1760" y="250" width="80" height="80" as="geometry" />
        </mxCell>
        <mxCell id="bdSbIlK9flpPJG_2lz9X-111" value="\(AB\)" style="ellipse;whiteSpace=wrap;html=1;aspect=fixed;strokeWidth=1;fontSize=20;fillColor=#f8cecc;strokeColor=#b85450;" vertex="1" parent="1">
          <mxGeometry x="2000" y="250" width="80" height="80" as="geometry" />
        </mxCell>
        <mxCell id="bdSbIlK9flpPJG_2lz9X-116" style="rounded=0;orthogonalLoop=1;jettySize=auto;html=1;exitX=0;exitY=1;exitDx=0;exitDy=0;entryX=0.5;entryY=0;entryDx=0;entryDy=0;" edge="1" parent="1" source="bdSbIlK9flpPJG_2lz9X-119" target="bdSbIlK9flpPJG_2lz9X-97">
          <mxGeometry relative="1" as="geometry" />
        </mxCell>
        <mxCell id="bdSbIlK9flpPJG_2lz9X-118" style="rounded=0;orthogonalLoop=1;jettySize=auto;html=1;exitX=1;exitY=1;exitDx=0;exitDy=0;entryX=0.5;entryY=0;entryDx=0;entryDy=0;" edge="1" parent="1" source="bdSbIlK9flpPJG_2lz9X-119" target="bdSbIlK9flpPJG_2lz9X-102">
          <mxGeometry relative="1" as="geometry" />
        </mxCell>
        <mxCell id="bdSbIlK9flpPJG_2lz9X-119" value="\(\Phi\)" style="ellipse;whiteSpace=wrap;html=1;aspect=fixed;strokeWidth=1;fontSize=20;" vertex="1" parent="1">
          <mxGeometry x="1880" y="10" width="80" height="80" as="geometry" />
        </mxCell>
        <mxCell id="bdSbIlK9flpPJG_2lz9X-120" value="\(AB|\Phi\)" style="text;html=1;align=center;verticalAlign=middle;resizable=0;points=[];autosize=1;strokeColor=none;fillColor=none;fontSize=15;" vertex="1" parent="1">
          <mxGeometry x="1815" y="210" width="90" height="30" as="geometry" />
        </mxCell>
        <mxCell id="bdSbIlK9flpPJG_2lz9X-122" value="\(C|\Phi\)" style="text;html=1;align=center;verticalAlign=middle;resizable=0;points=[];autosize=1;strokeColor=none;fillColor=none;fontSize=15;" vertex="1" parent="1">
          <mxGeometry x="1940" y="210" width="80" height="30" as="geometry" />
        </mxCell>
        <mxCell id="bdSbIlK9flpPJG_2lz9X-124" value="\(C|AB\)" style="text;html=1;align=center;verticalAlign=middle;resizable=0;points=[];autosize=1;strokeColor=none;fillColor=none;fontSize=15;" vertex="1" parent="1">
          <mxGeometry x="1760" y="330" width="80" height="30" as="geometry" />
        </mxCell>
        <mxCell id="bdSbIlK9flpPJG_2lz9X-127" value="\(AB|C\)" style="text;html=1;align=center;verticalAlign=middle;resizable=0;points=[];autosize=1;strokeColor=none;fillColor=none;fontSize=15;" vertex="1" parent="1">
          <mxGeometry x="2000" y="330" width="80" height="30" as="geometry" />
        </mxCell>
        <mxCell id="bdSbIlK9flpPJG_2lz9X-134" style="rounded=0;orthogonalLoop=1;jettySize=auto;html=1;exitX=1;exitY=1;exitDx=0;exitDy=0;entryX=0;entryY=0;entryDx=0;entryDy=0;strokeWidth=5;endArrow=none;endFill=0;" edge="1" parent="1" source="bdSbIlK9flpPJG_2lz9X-133" target="bdSbIlK9flpPJG_2lz9X-133">
          <mxGeometry relative="1" as="geometry" />
        </mxCell>
        <mxCell id="bdSbIlK9flpPJG_2lz9X-135" style="rounded=0;orthogonalLoop=1;jettySize=auto;html=1;exitX=0;exitY=1;exitDx=0;exitDy=0;entryX=1;entryY=0;entryDx=0;entryDy=0;strokeWidth=5;endArrow=none;endFill=0;" edge="1" parent="1" source="bdSbIlK9flpPJG_2lz9X-133" target="bdSbIlK9flpPJG_2lz9X-133">
          <mxGeometry relative="1" as="geometry" />
        </mxCell>
      </root>
    </mxGraphModel>
  </diagram>
</mxfile>
